<svg width="22px" height="22px" viewBox="541 59 22 22" version="1.1" xmlns="http://www.w3.org/2000/svg" xmlns:xlink="http://www.w3.org/1999/xlink">
    <!-- Generator: Sketch 41 (35326) - http://www.bohemiancoding.com/sketch -->
    <desc>Created with Sketch.</desc>
    <defs></defs>
    <g id="ic_library_add_black_24px" stroke="none" stroke-width="1" fill="none" fill-rule="evenodd" transform="translate(541.000000, 59.000000)">
        <g id="Group">
            <polygon id="Shape" points="0 0 22 0 22 22 0 22"></polygon>
            <path d="M3.66666667,5.5 L1.83333333,5.5 L1.83333333,18.3333333 C1.83333333,19.3416667 2.65833333,20.1666667 3.66666667,20.1666667 L16.5,20.1666667 L16.5,18.3333333 L3.66666667,18.3333333 L3.66666667,5.5 L3.66666667,5.5 Z M18.3333333,1.83333333 L7.33333333,1.83333333 C6.325,1.83333333 5.5,2.65833333 5.5,3.66666667 L5.5,14.6666667 C5.5,15.675 6.325,16.5 7.33333333,16.5 L18.3333333,16.5 C19.3416667,16.5 20.1666667,15.675 20.1666667,14.6666667 L20.1666667,3.66666667 C20.1666667,2.65833333 19.3416667,1.83333333 18.3333333,1.83333333 L18.3333333,1.83333333 Z M17.4166667,10.0833333 L13.75,10.0833333 L13.75,13.75 L11.9166667,13.75 L11.9166667,10.0833333 L8.25,10.0833333 L8.25,8.25 L11.9166667,8.25 L11.9166667,4.58333333 L13.75,4.58333333 L13.75,8.25 L17.4166667,8.25 L17.4166667,10.0833333 L17.4166667,10.0833333 Z" id="Shape" fill="#607D8B"></path>
        </g>
    </g>
</svg>
