<svg width="14px" height="21px" viewBox="305 60 14 21" version="1.1" xmlns="http://www.w3.org/2000/svg" xmlns:xlink="http://www.w3.org/1999/xlink">
    <!-- Generator: Sketch 41 (35326) - http://www.bohemiancoding.com/sketch -->
    <desc>Created with Sketch.</desc>
    <defs></defs>
    <g id="cursor-default-outline" stroke="none" stroke-width="1" fill="none" fill-rule="evenodd" transform="translate(305.000000, 60.000000)">
        <path d="M4.07,12.27 C4.57,12.03 5.16,12.25 5.4,12.75 L7.7,17.74 L9.5,16.89 L7.19,11.91 C6.95,11.41 7.17,10.81 7.67,10.58 L7.95,10.5 L10.25,10.05 L2,3.12 L2,13.9 L3.82,12.43 L4.07,12.27 L4.07,12.27 Z M7.64,19.97 C7.14,20.21 6.54,20 6.31,19.5 L4.13,14.76 L1.62,16.78 C1.45,16.92 1.24,17 1,17 C0.44771525,17 8.8817842e-16,16.5522847 8.8817842e-16,16 L8.8817842e-16,1 C8.8817842e-16,0.44771525 0.44771525,0 1,0 C1.24,0 1.47,0.09 1.64,0.23 L1.65,0.22 L13.14,9.86 C13.57,10.22 13.62,10.85 13.27,11.27 C13.12,11.45 12.91,11.57 12.7,11.61 L9.54,12.23 L11.74,16.96 C12,17.46 11.76,18.05 11.26,18.28 L7.64,19.97 L7.64,19.97 Z" id="Shape" fill="#607D8B"></path>
    </g>
</svg>
