<svg width="24px" height="24px" viewBox="338 58 24 24" version="1.1" xmlns="http://www.w3.org/2000/svg" xmlns:xlink="http://www.w3.org/1999/xlink">
    <!-- Generator: Sketch 41 (35326) - http://www.bohemiancoding.com/sketch -->
    <desc>Created with Sketch.</desc>
    <defs></defs>
    <g id="ic_crop_free_black_24px" stroke="none" stroke-width="1" fill="none" fill-rule="evenodd" transform="translate(338.000000, 58.000000)">
        <g id="Group">
            <polygon id="Shape" points="0 0 24 0 24 24 0 24"></polygon>
            <path d="M3,5 L3,9 L5,9 L5,5 L9,5 L9,3 L5,3 C3.9,3 3,3.9 3,5 L3,5 Z M5,15 L3,15 L3,19 C3,20.1 3.9,21 5,21 L9,21 L9,19 L5,19 L5,15 L5,15 Z M19,19 L15,19 L15,21 L19,21 C20.1,21 21,20.1 21,19 L21,15 L19,15 L19,19 L19,19 Z M19,3 L15,3 L15,5 L19,5 L19,9 L21,9 L21,5 C21,3.9 20.1,3 19,3 L19,3 Z" id="Shape" fill="#607D8B"></path>
        </g>
    </g>
</svg>
